PathFileType	4	(X/Y/Z)	/Users/niels/Desktop/University/Third Semester/Perception and Action/Exam/Gymnastics Motion Tracking/Code for Gym Tracking/Analyzed Data/Webcam_Backflip/id8_1_pure_Sports2D/id8_1_pure_Sports2D_px_person00.trc
DataRate	CameraRate	NumFrames	NumMarkers	Units	OrigDataRate	OrigDataStartFrame	OrigNumFrames
29.8125	29.8125	7	22	m	29.8125	20	160
Frame#	Time	Hip			RHip			RKnee			RAnkle			RBigToe			RSmallToe			RHeel			LHip			LKnee			LAnkle			LBigToe			LSmallToe			LHeel			Neck			Head			Nose			RShoulder			RElbow			RWrist			LShoulder			LElbow			LWrist		
		X1	Y1	Z1	X2	Y2	Z2	X3	Y3	Z3	X4	Y4	Z4	X5	Y5	Z5	X6	Y6	Z6	X7	Y7	Z7	X8	Y8	Z8	X9	Y9	Z9	X10	Y10	Z10	X11	Y11	Z11	X12	Y12	Z12	X13	Y13	Z13	X14	Y14	Z14	X15	Y15	Z15	X16	Y16	Z16	X17	Y17	Z17	X18	Y18	Z18	X19	Y19	Z19	X20	Y20	Z20	X21	Y21	Z21	X22	Y22	Z22
20	0.670859538784067	0.9490999350436733	-0.5837684943169728	0.0	0.9487957020673353	-0.5827147343064524	0.0	1.0096520955693702	-0.6628870797264	0.0	0.9700652323374476	-0.7556271714536619	0.0	1.0073938540294882	-0.7691103080626562	0.0	0.9994989321761872	-0.7729752732542785	0.0	0.9594422042851518	-0.7657196713731709	0.0	0.9509589955897426	-0.5804750700120163	0.0	1.0076855856290885	-0.6582007096952822	0.0	0.9718484275136221	-0.7473206674082462	0.0	1.0049925288123154	-0.7673078651438968	0.0	0.9966093766779327	-0.7679993997435324	0.0	0.9587675793591266	-0.75889998836059	0.0	1.0210928639450985	-0.48396465960146906	0.0	1.056607743718327	-0.4301664247947982	0.0	1.05956826358175	-0.45994728891903425	0.0	1.0164284396332905	-0.4970130251049751	0.0	0.9554309297754825	-0.5244457464382317	0.0	0.904103391941022	-0.5485434239460371	0.0	1.0108576332273629	-0.4897818782803392	0.0	0.9570619786569705	-0.5140869322936753	0.0	0.9151158225314446	-0.5428349786172565	0.0
21	0.7044025157232703	0.947037453531681	-0.5982878973450717	0.0	0.947236358041624	-0.5971235921262472	0.0	1.0133475836820462	-0.6726793169183378	0.0	0.970051067452608	-0.7627227261111721	0.0	1.005504272920421	-0.7760075782626521	0.0	0.9979237177570308	-0.7796782174930931	0.0	0.9594140264398117	-0.7725472752786552	0.0	0.9491915468689333	-0.5945643014635015	0.0	1.0109644068499435	-0.6679119879938993	0.0	0.9716177119122376	-0.7546801141389783	0.0	1.0052256494007328	-0.7752895651738462	0.0	0.9959188994808775	-0.776842841532123	0.0	0.9585016568379578	-0.7659437624929194	0.0	1.0187694828525693	-0.4983574787975006	0.0	1.0522165195092008	-0.4437776754847907	0.0	1.056639002687668	-0.4735084837164967	0.0	1.0140619739949899	-0.5133204075587623	0.0	0.958733286051585	-0.5451169491291359	0.0	0.9130272800761375	-0.5726496987899047	0.0	1.008139415230686	-0.5049087994826857	0.0	0.959456309723665	-0.5352351450493923	0.0	0.922943723156882	-0.5660177191018909	0.0
22	0.7379454926624737	0.9461301112541781	-0.6146284953498573	0.0	0.9471358562676653	-0.6135092352704982	0.0	1.0152100100572592	-0.6864772777209646	0.0	0.9700717672902215	-0.7740127792407446	0.0	1.0027582955154086	-0.7874392262873325	0.0	0.9954749578743045	-0.7907319468657216	0.0	0.9596660147367173	-0.7834536602035898	0.0	0.9480002460495109	-0.6107352234202805	0.0	1.0123038604658217	-0.6818184718478192	0.0	0.9710980826929436	-0.7662304904780608	0.0	1.0048393878361666	-0.786508702498571	0.0	0.9943169576080348	-0.7882657487737826	0.0	0.9582866180353271	-0.7769896540001829	0.0	1.0146376714365541	-0.5122616212610948	0.0	1.0449430938366366	-0.4564152379778712	0.0	1.0513624620633832	-0.48634203296130474	0.0	1.0107282560681692	-0.5290824116369747	0.0	0.9669442034192469	-0.566480310590596	0.0	0.932616528834857	-0.5984241634732758	0.0	1.0036116395739336	-0.5199430543980864	0.0	0.9661182348794111	-0.5571915009699309	0.0	0.9400516806751776	-0.5908793149474428	0.0
23	0.771488469601677	0.9463427399411253	-0.6308200345009694	0.0	0.9481099307777219	-0.629866129723508	0.0	1.014949720057262	-0.7029205523692688	0.0	0.9701972321555354	-0.7884068597614414	0.0	0.9996915459461709	-0.8022012508614036	0.0	0.9926462516699616	-0.8049757658577631	0.0	0.960172556415108	-0.7975135804654221	0.0	0.9475731886655694	-0.6270180103217334	0.0	1.011611978521054	-0.6984916774825795	0.0	0.9706132851638254	-0.7810108271899424	0.0	1.0038513650549346	-0.7999757446506	0.0	0.9920459186606848	-0.8010510405285155	0.0	0.9582658668989351	-0.7911130950876332	0.0	1.008703663092427	-0.5241513758445945	0.0	1.0349340524575512	-0.46659528700837855	0.0	1.0437948174033111	-0.49702920476365375	0.0	1.0062575662180466	-0.5422819732280979	0.0	0.9800910771114116	-0.5840245500009805	0.0	0.962770996672637	-0.6189310788828655	0.0	0.9975573806747529	-0.5330537186072402	0.0	0.9775588815880598	-0.5755243792249132	0.0	0.9669323135105201	-0.6109752025228214	0.0
24	0.8050314465408803	0.9477291474873395	-0.6444818663489594	0.0	0.9498430378133427	-0.6437387795604087	0.0	1.0126793130474163	-0.7194852772601089	0.0	0.9704423231345064	-0.8035977985780575	0.0	0.9970898804123315	-0.8177780606154824	0.0	0.9901383554228944	-0.8200901297045007	0.0	0.9608481033931154	-0.8126840513943815	0.0	0.9482843909548703	-0.6409161749015672	0.0	1.0090801387518238	-0.7153545186993739	0.0	0.9704292494573461	-0.7967040706256849	0.0	1.0023544090433083	-0.8139249619209902	0.0	0.9895904379849843	-0.8136795466963578	0.0	0.9585381539723454	-0.8062552051675841	0.0	1.0013961143783272	-0.5326046977127459	0.0	1.0227912999558817	-0.47299030542480797	0.0	1.034395522725829	-0.5041540270252906	0.0	1.0006289243047184	-0.5510471747687623	0.0	0.9964766471073696	-0.592726187631421	0.0	0.9995898985605486	-0.6261770463512694	0.0	0.9906667125564438	-0.5423255754667594	0.0	0.9926010598860284	-0.5853291272190904	0.0	1.0003931222393532	-0.6187551792621675	0.0
25	0.8385744234800837	0.9503756881612143	-0.6531852515198059	0.0	0.9523284357255734	-0.6526754279437386	0.0	1.0088298554328434	-0.7329286657009357	0.0	0.9707483579044597	-0.8166072842956209	0.0	0.9954690250313349	-0.8311079814766573	0.0	0.988375977870851	-0.8332093614945126	0.0	0.9615891279915271	-0.8261897799295791	0.0	0.9504669506199503	-0.6499204689597234	0.0	1.005126779765199	-0.7291685629139057	0.0	0.9705774880123209	-0.8102199427551308	0.0	1.0004585279681353	-0.8260474308420367	0.0	0.9874798068212821	-0.8243570355441493	0.0	0.9590864268679871	-0.8196033602493513	0.0	0.9934048613292937	-0.5362600978201069	0.0	1.0094476000826629	-0.4744371662852993	0.0	1.0238176495352782	-0.5062674286989882	0.0	0.9940992041019032	-0.5537895724395869	0.0	1.012685840405121	-0.5884302843997832	0.0	1.0356016729537905	-0.6139759503258888	0.0	0.9837200360376321	-0.5459374359462706	0.0	1.0079937016724139	-0.5823993603582934	0.0	1.0334397926657355	-0.6079762310054002	0.0
26	0.8721174004192871	0.9542324324558492	-0.6547447561559989	0.0	0.9557510035575256	-0.654547940431649	0.0	1.004096911802639	-0.7400839067817735	0.0	0.9710348011121674	-0.8245099907424047	0.0	0.9946436225959677	-0.8395270272406369	0.0	0.987171204846824	-0.8416776039781969	0.0	0.962319370817441	-0.8351490621419836	0.0	0.9540679610326517	-0.6518833267689728	0.0	1.0004143684636717	-0.7367700654169491	0.0	0.9708535515245738	-0.8185800401434868	0.0	0.9983163436985063	-0.833850205362776	0.0	0.9861188932844174	-0.8310931481093531	0.0	0.9598296462445556	-0.8282071385344855	0.0	0.9853762012707394	-0.5337845420649581	0.0	0.9958704967807746	-0.46989926106146906	0.0	1.0126328699846046	-0.502003960532017	0.0	0.9870232916834465	-0.5492694308944166	0.0	1.0243747341868261	-0.5693139111063886	0.0	1.0619139266074584	-0.5808731559379824	0.0	0.9771679133532583	-0.5423890648024482	0.0	1.0192617609825556	-0.564813486598186	0.0	1.0575318523933281	-0.5767500362866085	0.0
